<svg id="_x33_0" enable-background="new 0 0 64 64" height="512" viewBox="0 0 64 64" width="512" xmlns="http://www.w3.org/2000/svg"><g><g><g><path d="m26.71 24.18-.71 2.82-2.86.52-5.48 1c-1.71.31-3.24 1.25-4.28 2.64-.9 1.2-1.38 2.65-1.38 4.14v6.7h-4v-22c0-5.52 4.48-10 10-10h1v.01c0 .66.08 1.31.24 1.95l.32 1.29c-.35.49-.56 1.1-.56 1.75 0 .83.34 1.58.88 2.12s1.29.88 2.12.88h1c0 1.94.78 3.68 2.05 4.95.49.49 1.05.91 1.66 1.23z" fill="#ccd1d9"/></g><g><path d="m50 18v3.76c0 1.99-1.12 3.8-2.89 4.69-.73.36-1.53.55-2.35.55h-7.76-3l-.71-2.82c2.21-1.17 3.71-3.5 3.71-6.18h1c.83 0 1.58-.34 2.12-.88s.88-1.29.88-2.12c0-.65-.21-1.26-.56-1.75l.32-1.29c.16-.64.24-1.29.24-1.95v-.01h1c2.25 0 4.33.74 6 2v2.34c0 1.06.42 2.08 1.17 2.83z" fill="#ccd1d9"/></g><g><path d="m52 33v9h-10v-7h3.09c2.45 0 4.84-.69 6.9-2.01z" fill="#ccd1d9"/></g><g><path d="m2 42h60v20h-60z" fill="#d3a06c"/></g><g><path d="m27 42h3v6h-4-9c-2.76 0-5-2.24-5-5v-1-6.7c0-1.49.48-2.94 1.38-4.14 1.04-1.39 2.57-2.33 4.28-2.64l5.48-1 1.39 5.22z" fill="#fcd770"/></g><g><path d="m58 19v3.09c0 2.16-.54 4.25-1.53 6.09-.99 1.85-2.43 3.46-4.22 4.65-.09.06-.17.11-.26.16-2.06 1.32-4.45 2.01-6.9 2.01h-3.09v7h-6v-5c0-.55-.22-1.05-.59-1.41-.17-.17-.37-.32-.59-.41l.65-2.44 1.53-5.74h7.76c.82 0 1.62-.19 2.35-.55 1.77-.89 2.89-2.7 2.89-4.69v-3.76h6 1c.55 0 1 .45 1 1z" fill="#fcd770"/></g><g><path d="m27 9-.97.24c-1.4.36-2.48 1.43-2.87 2.76h-1.16c-1.01 0-1.89.49-2.44 1.25l-.32-1.29c-.16-.64-.24-1.29-.24-1.95v-.01c0-2.21.9-4.2 2.35-5.65s3.45-2.35 5.66-2.35h5.98c4.42 0 8 3.58 8.01 8v.01c0 .66-.08 1.31-.24 1.95l-.32 1.29c-.55-.76-1.43-1.25-2.44-1.25h-1-7c-.83 0-1.58-.34-2.12-.88s-.88-1.29-.88-2.12z" fill="#656d78"/></g><g><path d="m40.44 13.25c.35.49.56 1.1.56 1.75 0 .83-.34 1.58-.88 2.12s-1.29.88-2.12.88h-1v-6h1c1.01 0 1.89.49 2.44 1.25z" fill="#f0d0b4"/></g><g><path d="m22 12h1.16c-.1.36-.16.73-.16 1.12v4.88h-1c-.83 0-1.58-.34-2.12-.88s-.88-1.29-.88-2.12c0-.65.21-1.26.56-1.75.55-.76 1.43-1.25 2.44-1.25z" fill="#f0d0b4"/></g><g><path d="m33.29 24.18.71 2.82-4 3-4-3 .71-2.82c.98.53 2.1.82 3.29.82s2.31-.29 3.29-.82z" fill="#f0d0b4"/></g><g><path d="m37 12v6c0 2.68-1.5 5.01-3.71 6.18-.98.53-2.1.82-3.29.82s-2.31-.29-3.29-.82c-.61-.32-1.17-.74-1.66-1.23-1.27-1.27-2.05-3.01-2.05-4.95v-4.88c0-.39.06-.76.16-1.12.39-1.33 1.47-2.4 2.87-2.76l.97-.24c0 .83.34 1.58.88 2.12s1.29.88 2.12.88z" fill="#f0d0b4"/></g><g><path d="m32 38v4h-2-3l2-8h2z" fill="#b4dd7f"/></g><g><path d="m50 10v-2c0-1.1.45-2.1 1.17-2.83.73-.72 1.73-1.17 2.83-1.17 2.21 0 4 1.79 4 4v5.93c0 1.33-.53 2.6-1.46 3.53l-.54.54h-6l-.83-.83c-.75-.75-1.17-1.77-1.17-2.83v-2.34c0-1.1.9-2 2-2z" fill="#f0d0b4"/></g><g><path d="m52 42h-10-6v3 5l-2 4-2-4v-2h-2-4v10h16 14v-16z" fill="#e6e9ed"/></g><g><path d="m37 27-1.53 5.74-2.72-1.36-2.75-1.38 4-3z" fill="#fc6e51"/></g><g><path d="m36 45v5l-2 4-2-4v-2h1c1.66 0 3-1.34 3-3z" fill="#aab2bd"/></g><g><path d="m36 42v3c0-.83-.34-1.58-.88-2.12s-1.29-.88-2.12-.88h-1v-4-1c0-1.1.9-2 2-2 .29 0 .57.06.82.18.22.09.42.24.59.41.37.36.59.86.59 1.41z" fill="#aab2bd"/></g><g><path d="m35.47 32.74-.65 2.44c-.25-.12-.53-.18-.82-.18-1.1 0-2 .9-2 2v1l-1-4 1.75-2.62z" fill="#ff826e"/></g><g><path d="m35.12 42.88c.54.54.88 1.29.88 2.12 0 1.66-1.34 3-3 3h-1-2v-6h2 1c.83 0 1.58.34 2.12.88z" fill="#f0d0b4"/></g><g><path d="m32.75 31.38-1.75 2.62h-2l-1.75-2.62 2.75-1.38z" fill="#a0d468"/></g><g><path d="m30 30-2.75 1.38-2.72 1.36-1.39-5.22 2.86-.52z" fill="#fc6e51"/></g><g><path d="m27.25 31.38 1.75 2.62-2 8-2.47-9.26z" fill="#ff826e"/></g></g><g><path d="m27.895 18.553-1.789.895.105.21c.722 1.445 2.174 2.342 3.789 2.342s3.067-.897 3.789-2.342l.105-.211-1.789-.895-.105.212c-.381.762-1.147 1.236-2 1.236s-1.619-.474-2-1.236z"/><circle cx="27" cy="16" r="1"/><circle cx="33" cy="16" r="1"/><path d="m53 41v-7.483c3.756-2.6 6-6.846 6-11.425v-3.092c0-.743-.412-1.385-1.015-1.73.66-.98 1.015-2.133 1.015-3.341v-5.929c0-2.757-2.243-5-5-5s-5 2.243-5 5v1.184c-.654.233-1.199.681-1.555 1.265-1.652-.946-3.508-1.449-5.445-1.449h-.061c-.506-4.494-4.326-8-8.953-8h-5.973c-4.627 0-8.447 3.506-8.953 8h-.06c-6.065 0-11 4.935-11 11v21h-6v22h62v-22zm-26.786-30.767c.524 1.6 2.013 2.767 3.786 2.767h6v5c0 3.309-2.691 6-6 6s-6-2.691-6-6v-4.877c0-1.358.908-2.535 2.214-2.89zm13.786 4.767c0 1.103-.897 2-2 2v-4c1.103 0 2 .897 2 2zm-6 36.764-1-2v-.764c.732 0 1.409-.212 2-.556v1.32zm-4-20.646 1.29.645-.825 1.237h-.93l-.825-1.237zm4 4.882c.552 0 1 .449 1 1v4.556c-.591-.344-1.268-.556-2-.556v-4c0-.551.448-1 1-1zm-7.092-3.336 1.015 1.522-.954 3.817-1.263-4.738zm2.873 2.336h.439l.78 3.122v2.878h-2.72zm3.219 8c1.103 0 2 .897 2 2s-.897 2-2 2h-2v-4zm1-9c-.684 0-1.308.239-1.813.626l-.11-.439 1.015-1.522 1.203.601-.198.744c-.033-.001-.064-.01-.097-.01zm.821-2.708-2.927-1.463 2.439-1.829h1.366zm-4.821-5.292c.914 0 1.789-.162 2.608-.445l.261 1.044-2.869 2.151-2.869-2.152.261-1.044c.818.284 1.694.446 2.608.446zm-4.25 2.062 2.356 1.767-2.926 1.463-.795-2.982zm-3.339.607 3.288 12.331h-6.699v-6h-2v6.586l-1.707 1.707 1.414 1.414 1.707-1.707h10.586v4h-12c-2.206 0-4-1.794-4-4v-7.703c0-1.267.418-2.522 1.178-3.535.895-1.192 2.194-1.996 3.66-2.262zm4.589 20.331h4v1.236l1.382 2.764h-3.382v2h10v-2h-3.382l1.382-2.764v-7.236h4v14h-14zm16-6h12v14h-12zm0-2v-5h2.092c2.058 0 4.068-.452 5.908-1.317v6.317zm14-18.908c0 3.99-1.982 7.694-5.303 9.908-1.963 1.309-4.246 2-6.605 2h-4.092v7h-4v-4c0-.898-.405-1.696-1.033-2.247l1.801-6.753h6.996c.963 0 1.928-.228 2.789-.658 2.126-1.064 3.447-3.201 3.447-5.578v-2.764h6zm-8-10.092c0-.551.448-1 1-1s1 .449 1 1v1h2v-1c0-1.302-.839-2.402-2-2.816v-1.184c0-1.654 1.346-3 3-3s3 1.346 3 3v5.929c0 1.069-.416 2.073-1.172 2.829l-.242.242h-5.172l-.535-.536c-.559-.558-.879-1.331-.879-2.121zm-2 .523v1.82c0 1.335.521 2.591 1.465 3.535l.535.536v3.35c0 1.615-.897 3.066-2.342 3.789-.585.292-1.24.447-1.894.447h-9.982l-.338-1.352c1.88-1.261 3.193-3.298 3.488-5.648h.068c2.206 0 4-1.794 4-4 0-.687-.19-1.325-.497-1.891l.227-.91c.099-.394.164-.796.209-1.2h.061c1.803.001 3.519.53 5 1.524zm-19.986-9.523h5.973c3.867 0 7.013 3.146 7.013 7.014 0 .49-.062.976-.163 1.454-.553-.289-1.171-.468-1.837-.468h-8c-1.103 0-2-.897-2-2s.897-2 2-2v-2c-1.932 0-3.547 1.376-3.919 3.199l-.293.073c-1.496.374-2.676 1.402-3.3 2.728h-.488c-.666 0-1.284.179-1.837.468-.101-.478-.163-.965-.163-1.454 0-3.868 3.146-7.014 7.014-7.014zm-5.014 10.123v3.877c-1.103 0-2-.897-2-2s.897-2 2-2h.01c-.001.042-.01.081-.01.123zm-13 6.877c0-4.962 4.037-9 9-9h.061c.045.404.11.806.209 1.2l.227.91c-.307.565-.497 1.203-.497 1.89 0 2.206 1.794 4 4 4h.069c.295 2.35 1.607 4.388 3.488 5.648l-.371 1.483-7.706 1.401c-1.963.357-3.704 1.433-4.902 3.029-1.017 1.358-1.578 3.04-1.578 4.736v5.703h-2zm52 41h-58v-18h8c0 3.309 2.691 6 6 6h8v10h32v-16h4z"/><path d="m45 53h8v2h-8z"/><path d="m45 49h8v2h-8z"/><path d="m45 45h8v2h-8z"/></g></g></svg>