<svg height="512pt" viewBox="0 -3 512 511" width="512pt" xmlns="http://www.w3.org/2000/svg"><path d="m94.777344 467.0625v-9.539062c0-5.5 4.5-10 10-10-5.5 0-10-4.5-10-10v-9.539063c0-5.5 4.5-10 10-10-5.5 0-10-4.5-10-10v-9.539063c0-5.5 4.5-10 10-10h6.582031l-47.460937-18.324218v14.027344h10.457031c5.5 0 10 4.5 10 10v33.199218c0 5.5-4.5 10-10 10 0 0-10.082031-.027344-10.457031-.070312v54.769531c0 2.75 2.25 5 5 5h30.195312c2.75 0 5.363281-2.222656 5.804688-4.933594l2.449218-15.054687h-2.570312c-5.5.003906-10-4.496094-10-9.996094zm0 0" fill="#9ea7af"/><g fill="#ffb98a"><path d="m63.898438 437.277344c.375.042968 10.457031.070312 10.457031.070312 5.5 0 10-4.5 10-10v-33.195312c0-5.5-4.5-10-10-10h-30.273438c-5.5 0-10 4.152344-10 9.226562 0 5.074219-4.5 9.226563-10 9.226563h-3.988281c-5.5 0-10 4.5-10 10v40.296875c0 5.5 4.5 10 10 10h3.988281c5.5 0 10 4.152344 10 9.230468 0 5.074219 4.5 9.226563 10 9.226563h19.816407zm0 0"/><path d="m111.359375 388.445312h-6.582031c-5.5 0-10 4.5-10 10v9.539063c0 5.5 4.5 10 10 10h24.296875c5.5 0 10-4.5 10-10v-8.835937zm0 0"/><path d="m139.074219 437.523438c0 5.5-4.5 10-10 10h-24.296875c-5.5 0-10-4.5-10-10v-9.539063c0-5.5 4.5-10 10-10h24.296875c5.5 0 10 4.5 10 10zm0 0"/><path d="m139.074219 467.0625c0 5.5-4.5 10-10 10h-24.296875c-5.5 0-10-4.5-10-10v-9.539062c0-5.5 4.5-10 10-10h24.296875c5.5 0 10 4.5 10 10zm0 0"/></g><path d="m313.152344 282.976562v82.671876c19.820312-3.234376 34.957031-20.503907 34.957031-41.335938s-15.136719-38.101562-34.957031-41.335938zm0 0" fill="#9ea7af"/><path d="m43.390625 298.753906h-25.890625c-5.5 0-10 4.5-10 10v31.117188c0 5.5 4.5 10 10 10h25.890625zm0 0" fill="#9ea7af"/><path d="m308.761719 177.324219-162.925781 88.898437v116.179688l162.925781 88.898437c2.414062 1.316407 4.390625.144531 4.390625-2.605469v-288.765624c0-2.75-1.976563-3.921876-4.390625-2.605469zm0 0" fill="#fb8276"/><path d="m308.761719 177.324219-38.0625 20.769531v252.4375l38.0625 20.769531c2.414062 1.316407 4.390625.144531 4.390625-2.605469v-288.765624c0-2.75-1.976563-3.921876-4.390625-2.605469zm0 0" fill="#ef5050"/><path d="m145.835938 251.863281c0-2.75-2.097657-4.1875-4.664063-3.199219l-93.117187 35.957032c-2.566407.988281-4.664063 4.050781-4.664063 6.800781v65.777344c0 2.75 2.097656 5.8125 4.664063 6.804687l93.117187 35.953125c2.5625.992188 4.664063-.449219 4.664063-3.199219zm0 0" fill="#c0272d"/><path d="m504.5 76.316406c0-2.75-2.25-5-5-5h-147.496094c-2.75 0-5 2.25-5 5v111.71875c0 2.75 2.25 5 5 5h19.859375c2.75 0 5 2.25 5 5v25.808594c0 2.75 1.597657 3.417969 3.550781 1.480469l29.011719-28.765625c1.953125-1.9375 5.796875-3.523438 8.546875-3.523438h81.527344c2.75 0 5-2.25 5-5zm0 0" fill="#0291c9"/><path d="m128.820312 13c0-2.75 2.25-5 5-5h147.496094c2.75 0 5 2.25 5 5v111.722656c0 2.75-2.25 5-5 5h-19.855468c-2.75 0-5 2.25-5 5v25.804688c0 2.75-1.601563 3.417968-3.550782 1.480468l-29.011718-28.765624c-1.953126-1.9375-5.800782-3.519532-8.550782-3.519532h-81.523437c-2.75 0-5-2.25-5-5v-111.722656zm0 0" fill="#ffc502"/><path d="m320.652344 277.058594v-124.984375c0-4.140625-3.359375-7.5-7.5-7.5-4.144532 0-7.5 3.359375-7.5 7.5v18.4375c-.160156.082031-.324219.140625-.484375.230469l-151.832031 82.84375v-1.722657c0-3.820312-1.6875-7.167969-4.628907-9.1875-2.941406-2.015625-6.671875-2.382812-10.238281-1.007812l-93.113281 35.957031c-5.433594 2.097656-9.382813 7.808594-9.457031 13.628906h-18.398438c-9.648438 0-17.5 7.851563-17.5 17.5v31.117188c0 9.648437 7.851562 17.5 17.5 17.5h18.398438c.074218 5.816406 4.023437 11.53125 9.453124 13.628906l14.636719 5.648438h-15.90625c-9.652343 0-17.5 7.503906-17.5 16.730468 0 .796875-1.09375 1.726563-2.5 1.726563h-3.988281c-9.648438 0-17.5 7.847656-17.5 17.5v40.296875c0 9.648437 7.851562 17.5 17.5 17.5h3.988281c1.40625 0 2.5.929687 2.5 1.726562 0 9.222656 7.847657 16.726563 17.5 16.726563h12.316407v3.191406c0 6.894531 5.609374 12.5 12.5 12.5h30.195312c6.382812 0 12.183594-4.933594 13.207031-11.230469l1.425781-8.753906h15.347657c9.648437 0 17.5-7.851562 17.5-17.5v-9.539062c0-3.71875-1.171875-7.164063-3.160157-10 1.988282-2.839844 3.160157-6.28125 3.160157-10v-9.539063c0-3.71875-1.171875-7.160156-3.160157-10 1.988282-2.835937 3.160157-6.28125 3.160157-10v-.914063c.746093-.289062 1.460937-.664062 2.132812-1.125 2.941407-2.015624 4.628907-5.363281 4.628907-9.1875v-1.71875l151.832031 82.84375c.160156.085938.320312.148438.480469.226563v18.441406c0 4.140625 3.359374 7.5 7.5 7.5 4.144531 0 7.5-3.359375 7.5-7.5v-124.984375c20.207031-6.140625 34.960937-24.988281 34.960937-47.253906s-14.753906-41.113281-34.957031-47.253906zm-284.761719 65.3125h-18.390625c-1.355469 0-2.5-1.144532-2.5-2.5v-31.117188c0-1.355468 1.144531-2.5 2.5-2.5h18.390625zm29.148437 87.476562c-1.351562 0-2.5-1.144531-2.5-2.5v-17.566406c0-4.140625-3.355468-7.5-7.5-7.5-4.140624 0-7.5 3.359375-7.5 7.5v17.566406c0 6.507813 3.578126 12.183594 8.859376 15.199219v31.308594h-12.316407c-1.410156 0-2.5-.925781-2.5-1.726563 0-9.222656-7.851562-16.726562-17.5-16.726562h-3.988281c-1.355469 0-2.5-1.144532-2.5-2.5v-40.296875c0-1.355469 1.144531-2.5 2.5-2.5h3.988281c9.648438 0 17.5-7.503907 17.5-16.726563 0-.800781 1.089844-1.730468 2.5-1.730468h30.273438c1.355469 0 2.5 1.148437 2.5 2.5v33.199218c0 1.355469-1.144531 2.5-2.5 2.5zm32.679688 59.699219h-26.320312v-44.699219h2.957031c5.160156 0 9.792969-2.257812 13-5.824218.265625 3.144531 1.367187 6.046874 3.082031 8.5-1.984375 2.835937-3.160156 6.28125-3.160156 10v9.539062c0 7.511719 4.769531 13.914062 11.433594 16.390625zm33.855469-22.484375c0 1.351562-1.144531 2.5-2.5 2.5h-24.296875c-1.351563 0-2.5-1.148438-2.5-2.5v-9.539062c0-1.355469 1.148437-2.5 2.5-2.5h24.296875c1.355469 0 2.5 1.144531 2.5 2.5zm0-29.539062c0 1.355468-1.144531 2.5-2.5 2.5h-24.296875c-1.351563 0-2.5-1.144532-2.5-2.5v-9.539063c0-1.355469 1.148437-2.5 2.5-2.5h24.296875c1.355469 0 2.5 1.144531 2.5 2.5zm0-29.539063c0 1.355469-1.144531 2.5-2.5 2.5h-24.296875c-1.351563 0-2.5-1.144531-2.5-2.5v-9.539063c0-1.351562 1.148437-2.5 2.5-2.5h5.1875l21.613281 8.347657v3.691406zm174.078125 53.074219-27.453125-14.980469v-141.554687c0-4.140626-3.355469-7.5-7.5-7.5-4.140625 0-7.5 3.359374-7.5 7.5v133.371093l-109.863281-59.941406v-9.429687c0-4.140626-3.359376-7.5-7.5-7.5-4.140626 0-7.5 3.359374-7.5 7.5v22.300781l-87.328126-33.71875c-.039062-.050781-.085937-.117188-.117187-.175781v-65.238282c.03125-.054687.078125-.121094.117187-.171875l87.328126-33.71875v75.722657c0 4.140624 3.359374 7.5 7.5 7.5 4.144531 0 7.5-3.359376 7.5-7.5v-62.851563l109.863281-59.941406v57.792969c0 4.140624 3.359375 7.5 7.5 7.5 4.144531 0 7.5-3.359376 7.5-7.5v-65.976563l27.453125-14.980469zm15-105.492188v-62.507812c11.765625 5.4375 19.957031 17.398437 19.957031 31.253906s-8.191406 25.816406-19.957031 31.253906zm0 0"/><path d="m408.261719 247.0625c-2.9375 2.921875-2.949219 7.671875-.027344 10.605469 36.574219 36.75 36.574219 96.542969 0 133.285156-2.921875 2.9375-2.910156 7.6875.027344 10.609375 1.464843 1.457031 3.378906 2.183594 5.289062 2.183594 1.925781 0 3.851563-.738282 5.316407-2.210938 42.378906-42.578125 42.378906-111.863281 0-154.445312-2.921876-2.9375-7.671876-2.949219-10.605469-.027344zm0 0"/><path d="m371.578125 270.648438c-2.9375 2.917968-2.949219 7.667968-.027344 10.605468 23.628907 23.746094 23.625 62.375-.003906 86.117188-2.921875 2.933594-2.910156 7.683594.027344 10.605468 1.460937 1.457032 3.375 2.183594 5.289062 2.183594 1.925781 0 3.851563-.734375 5.316407-2.207031 29.433593-29.574219 29.4375-77.699219.003906-107.277344-2.921875-2.941406-7.671875-2.949219-10.605469-.027343zm0 0"/><path d="m109.761719 292.363281h-24.265625c-4.140625 0-7.5 3.359375-7.5 7.5 0 4.144531 3.359375 7.5 7.5 7.5h24.265625c4.140625 0 7.5-3.355469 7.5-7.5 0-4.140625-3.359375-7.5-7.5-7.5zm0 0"/><path d="m109.761719 316.8125h-24.265625c-4.140625 0-7.5 3.359375-7.5 7.5s3.359375 7.5 7.5 7.5h24.265625c4.140625 0 7.5-3.359375 7.5-7.5s-3.359375-7.5-7.5-7.5zm0 0"/><path d="m109.761719 341.257812h-24.265625c-4.140625 0-7.5 3.359376-7.5 7.5 0 4.144532 3.359375 7.5 7.5 7.5h24.265625c4.140625 0 7.5-3.355468 7.5-7.5 0-4.140624-3.359375-7.5-7.5-7.5zm0 0"/><path d="m499.5 63.816406h-147.496094c-6.890625 0-12.5 5.605469-12.5 12.5v111.71875c0 6.894532 5.609375 12.5 12.5 12.5h17.359375v23.308594c0 4.421875 2.117188 7.945312 5.660157 9.421875 1.085937.453125 2.214843.671875 3.351562.671875 2.558594 0 5.144531-1.128906 7.320312-3.289062l29.007813-28.761719c.578125-.554688 2.476563-1.335938 3.273437-1.351563h29.023438c4.140625 0 7.5-3.355468 7.5-7.5 0-4.140625-3.359375-7.5-7.5-7.5h-29.023438c-4.761718 0-10.449218 2.34375-13.832031 5.695313l-19.78125 19.613281v-12.808594c0-6.890625-5.605469-12.5-12.5-12.5h-17.359375v-106.71875h142.496094v106.71875h-15c-4.140625 0-7.5 3.359375-7.5 7.5 0 4.144532 3.359375 7.5 7.5 7.5h17.5c6.894531 0 12.5-5.605468 12.5-12.5v-111.71875c0-6.894531-5.605469-12.5-12.5-12.5zm0 0"/><path d="m382.925781 111.527344h85.652344c4.140625 0 7.5-3.359375 7.5-7.5 0-4.144532-3.359375-7.5-7.5-7.5h-85.652344c-4.140625 0-7.5 3.355468-7.5 7.5 0 4.140625 3.359375 7.5 7.5 7.5zm0 0"/><path d="m468.578125 124.675781h-85.652344c-4.140625 0-7.5 3.355469-7.5 7.5 0 4.140625 3.359375 7.5 7.5 7.5h85.652344c4.140625 0 7.5-3.359375 7.5-7.5 0-4.144531-3.359375-7.5-7.5-7.5zm0 0"/><path d="m382.925781 152.824219c-4.140625 0-7.5 3.359375-7.5 7.5 0 4.144531 3.359375 7.5 7.5 7.5h38.269531c4.144532 0 7.5-3.355469 7.5-7.5 0-4.140625-3.355468-7.5-7.5-7.5zm0 0"/><path d="m133.820312 137.222656h81.523438c.800781.011719 2.695312.792969 3.273438 1.34375l29.011718 28.769532c2.734375 2.710937 5.488282 3.28125 7.3125 3.28125 4.480469 0 9.015625-3.464844 9.015625-10.089844v-23.304688h17.359375c6.894532 0 12.5-5.609375 12.5-12.5v-111.722656c0-6.894531-5.605468-12.5-12.5-12.5h-147.496094c-6.890624 0-12.5 5.605469-12.5 12.5v111.722656c0 6.890625 5.609376 12.5 12.5 12.5zm2.5-121.722656h142.496094v106.722656h-17.355468c-6.894532 0-12.5 5.605469-12.5 12.5v12.808594l-19.78125-19.617188c-3.382813-3.351562-9.070313-5.691406-13.832032-5.691406h-79.023437v-106.722656zm0 0"/><path d="m164.746094 48.210938h85.648437c4.140625 0 7.5-3.359376 7.5-7.5 0-4.140626-3.359375-7.5-7.5-7.5h-85.648437c-4.144532 0-7.5 3.359374-7.5 7.5 0 4.140624 3.355468 7.5 7.5 7.5zm0 0"/><path d="m164.746094 76.359375h85.648437c4.140625 0 7.5-3.355469 7.5-7.5 0-4.140625-3.359375-7.5-7.5-7.5h-85.648437c-4.144532 0-7.5 3.359375-7.5 7.5 0 4.144531 3.355468 7.5 7.5 7.5zm0 0"/><path d="m203.015625 89.511719h-38.273437c-4.140626 0-7.5 3.355469-7.5 7.5 0 4.140625 3.359374 7.5 7.5 7.5h38.273437c4.140625 0 7.5-3.359375 7.5-7.5 0-4.144531-3.359375-7.5-7.5-7.5zm0 0"/></svg>