<svg height="512" viewBox="0 0 58 58" width="512" xmlns="http://www.w3.org/2000/svg"><g id="Page-1" fill="none" fill-rule="evenodd"><g id="093---Payday" fill-rule="nonzero" transform="translate(-1)"><path id="Shape" d="m9 4-7.939 32.5c-.15919302.5833393-.0431054 1.2074457.31519268 1.6945285.35829807.4870827.91952675.7837434 1.52380732.8054715h8.1z" fill="#f29c1f"/><path id="Shape" d="m13 43h-2c-1.10320187-.0032948-1.9967052-.8967981-2-2v-37h44c1.1032019.0032948 1.9967052.89679813 2 2v23z" fill="#f0c419"/><rect id="Rectangle-path" fill="#26b99a" height="29" rx="2" width="46" x="13" y="29"/><circle id="Oval" cx="17" cy="20" fill="#f29c1f" r="3"/><circle id="Oval" cx="27" cy="20" fill="#f29c1f" r="3"/><circle id="Oval" cx="47" cy="20" fill="#f29c1f" r="3"/><path id="Shape" d="m36 24c-.2651948-.0000566-.5195073-.1054506-.707-.293l-1-1c-.3789722-.3923789-.3735524-1.0160848.0121814-1.4018186s1.0094397-.3911536 1.4018186-.0121814l.138.138 3.323-4.986c.1982824-.297245.5400812-.4661282.8966441-.4430331s.6737195.2346599.832.555c.1582805.32034.1336383.7007881-.0646441.9980331l-4 6c-.1648955.250626-.4336016.4139788-.732.445-.035 0-.067 0-.1 0z" fill="#4fba6f"/><path id="Shape" d="m37 43.1v-5.916c1.1943509.4222546 1.9947486 1.5492146 2 2.816 0 .5522847.4477153 1 1 1s1-.4477153 1-1c-.0029983-2.3751008-1.6735832-4.4215673-4-4.9v-1.1c0-.5522847-.4477153-1-1-1s-1 .4477153-1 1v1.1c-2.330324.4731925-4.0050126 2.5221184-4.0050126 4.9s1.6746886 4.4268075 4.0050126 4.9v5.917c-1.1946951-.4223781-1.9951701-1.5498471-2-2.817 0-.5522847-.4477153-1-1-1s-1 .4477153-1 1c.0029983 2.3751008 1.6735832 4.4215673 4 4.9v1.1c0 .5522847.4477153 1 1 1s1-.4477153 1-1v-1.1c2.330324-.4731925 4.0050126-2.5221184 4.0050126-4.9s-1.6746886-4.4268075-4.0050126-4.9zm-4-3.1c.0052514-1.2667854.8056491-2.3937454 2-2.816v5.632c-1.1943509-.4222546-1.9947486-1.5492146-2-2.816zm4 10.816v-5.632c1.1981296.4174114 2.0009455 1.5472421 2.0009455 2.816s-.8028159 2.3985886-2.0009455 2.816z" fill="#ecf0f1"/><circle id="Oval" cx="22" cy="43" fill="#81ccb8" r="3"/><circle id="Oval" cx="50" cy="43" fill="#81ccb8" r="3"/><path id="Shape" d="m55 6v6h-46v-8h44c1.1032019.0032948 1.9967052.89679813 2 2z" fill="#e64c3c"/><g fill="#14a085"><path id="Shape" d="m59 50v6c-.0032948 1.1032019-.8967981 1.9967052-2 2h-6c0-2.1217319.8428547-4.1565632 2.3431458-5.6568542 1.500291-1.5002911 3.5351223-2.3431458 5.6568542-2.3431458z"/><path id="Shape" d="m21 29c0 4.418278-3.581722 8-8 8v-6c.0032948-1.1032019.8967981-1.9967052 2-2z"/><path id="Shape" d="m21 58h-6c-1.1032019-.0032948-1.9967052-.8967981-2-2v-6c2.1217319 0 4.1565632.8428547 5.6568542 2.3431458 1.5002911 1.500291 2.3431458 3.5351223 2.3431458 5.6568542z"/><path id="Shape" d="m59 31v6c-4.418278 0-8-3.581722-8-8h6c1.1032019.0032948 1.9967052.8967981 2 2z"/></g><rect id="Rectangle-path" fill="#95a5a5" height="8" rx="2" width="4" x="47"/><rect id="Rectangle-path" fill="#95a5a5" height="8" rx="2" width="4" x="36"/><rect id="Rectangle-path" fill="#95a5a5" height="8" rx="2" width="4" x="25"/><rect id="Rectangle-path" fill="#95a5a5" height="8" rx="2" width="4" x="14"/></g></g></svg>