<?xml version="1.0" encoding="iso-8859-1"?>
<!-- Generator: Adobe Illustrator 19.0.0, SVG Export Plug-In . SVG Version: 6.00 Build 0)  -->
<svg version="1.1" id="Capa_1" xmlns="http://www.w3.org/2000/svg" xmlns:xlink="http://www.w3.org/1999/xlink" x="0px" y="0px"
	 viewBox="0 0 512 512" style="enable-background:new 0 0 512 512;" xml:space="preserve">
<g>
	<rect x="264" y="44" style="fill:#AC92EC;" width="32" height="32"/>
	<rect x="336" y="12" style="fill:#AC92EC;" width="80" height="80"/>
	<rect x="400" y="124" style="fill:#AC92EC;" width="40" height="40"/>
</g>
<rect x="384" y="228" style="fill:#CCD1D9;" width="120" height="24"/>
<rect x="384" y="252" style="fill:#E6E9ED;" width="120" height="88"/>
<path style="fill:#5D9CEC;" d="M232,404l24-8l24,8l16-16h32c26.56,0,48,21.44,48,48v2.232V484c0,8.8-7.12,16-16,16H152
	c-8.88,0-16-7.2-16-16v-45.768V436c0-26.56,21.44-48,48-48h32L232,404z"/>
<path style="fill:#4A89DC;" d="M328,388h-32c26.56,0,48,21.44,48,48v2.232V484c0,8.8-7.12,16-16,16h32c8.88,0,16-7.2,16-16v-45.768
	V436C376,409.44,354.56,388,328,388z"/>
<path style="fill:#F5F7FA;" d="M256,396l-24,8l-16-16v-25.6c12,6.16,25.6,9.6,40,9.6s28-3.448,40-9.6V388l-16,16L256,396z"/>
<path style="fill:#EAC6BB;" d="M344,252v32c0,34.16-19.52,63.832-48,78.4c-12,6.16-25.6,9.6-40,9.6s-28-3.448-40-9.6
	c-28.48-14.56-48-44.24-48-78.4v-32l24-24c0,0,29.68,16,64,16s64-16,64-16L344,252z"/>
<path style="fill:#D3B1A9;" d="M320,228c0,0-2.928,1.576-8,3.744V284c0,34.16-19.52,63.832-48,78.4
	c-7.432,3.816-15.528,6.44-24,7.992c5.2,0.96,10.512,1.608,16,1.608c14.4,0,28-3.448,40-9.6c28.48-14.56,48-44.24,48-78.4v-32
	L320,228z"/>
<path style="fill:#965353;" d="M192,228l-24,24v-40c0-39.84,32.24-72,72-72h64v32c22.08,0,40,17.832,40,40v40l-24-24
	c0,0-29.68,16-64,16S192,228,192,228z"/>
<path style="fill:#844747;" d="M304,172v-32h-32v48c22.08,0,40,9.832,40,32v11.744c5.072-2.168,8-3.744,8-3.744l24,24v-40
	C344,189.832,326.08,172,304,172z"/>
<polygon style="fill:#E6E9ED;" points="56,308 71.52,328.72 64,340 32,340 "/>
<polygon style="fill:#F5F7FA;" points="96,292 128,340 64,340 71.52,328.72 "/>
<polygon style="fill:#48CFAD;" points="128,244 128,340 96,292 71.52,328.72 56,308 32,340 8,340 8,244 "/>
<g>
	<path style="fill:#A0D468;" d="M163.84,75.912L163.68,76H112c-8.8,0-16-7.2-16-16c0-8.88,7.2-16,16-16h29.12
		C151.44,52.232,159.36,63.192,163.84,75.912z"/>
	<path style="fill:#A0D468;" d="M64,124c8.8,0,16,7.12,16,16c0,8.8-7.2,16-16,16H50.88c-10.32-8.24-18.24-19.28-22.728-32H64z"/>
</g>
<path style="fill:#5D9CEC;" d="M96,28c17.12,0,32.8,6,45.12,16H112c-8.8,0-16,7.12-16,16c0,8.8,7.2,16,16,16h51.68l0.168-0.088
	C166.56,83.44,168,91.512,168,100c0,39.76-32.24,72-72,72c-17.12,0-32.8-6-45.12-16H64c8.8,0,16-7.2,16-16c0-8.88-7.2-16-16-16
	H28.16c-2.72-7.448-4.16-15.52-4.16-24C24,60.232,56.24,28,96,28z"/>
<path d="M136,443.992c-4.424,0-8-3.576-8-8C128,405.12,153.128,380,184,380c4.424,0,8,3.576,8,8s-3.576,8-8,8
	c-22.056,0-40,17.936-40,39.992C144,440.416,140.424,443.992,136,443.992z"/>
<path d="M216,396.008L216,396.008L184,396c-4.424,0-8-3.584-8-8c0-4.424,3.584-8,8-8l0,0l32,0.008c4.424,0,8,3.584,8,8
	C224,392.432,220.416,396.008,216,396.008z"/>
<path d="M136,492c-4.424,0-8-3.576-8-8v-45.712c0-4.424,3.576-8,8-8s8,3.576,8,8V484C144,488.424,140.424,492,136,492z"/>
<path d="M376,443.992c-4.424,0-8-3.576-8-8C368,413.936,350.056,396,328,396c-4.424,0-8-3.576-8-8s3.576-8,8-8
	c30.872,0,56,25.12,56,55.992C384,440.416,380.424,443.992,376,443.992z"/>
<path d="M296,396.008c-4.416,0-8-3.576-8-8c0-4.416,3.576-8,8-8L328,380c4.416,0,8,3.576,8,8c0,4.416-3.576,8-8,8L296,396.008z"/>
<path d="M376,492c-4.424,0-8-3.576-8-8v-45.712c0-4.424,3.576-8,8-8s8,3.576,8,8V484C384,488.424,380.424,492,376,492z"/>
<path d="M360,508H152c-4.424,0-8-3.576-8-8s3.576-8,8-8h208c4.424,0,8,3.576,8,8S364.424,508,360,508z"/>
<path d="M216,396.008c-4.424,0-8-3.576-8-8V362.4c0-4.424,3.576-8,8-8s8,3.576,8,8v25.608C224,392.432,220.424,396.008,216,396.008z
	"/>
<path d="M296,396c-4.424,0-8-3.576-8-8v-25.6c0-4.424,3.576-8,8-8s8,3.576,8,8V388C304,392.424,300.424,396,296,396z"/>
<path d="M256,380c-52.936,0-96-43.064-96-96c0-4.424,3.576-8,8-8s8,3.576,8,8c0,44.112,35.888,80,80,80s80-35.888,80-80
	c0-4.424,3.576-8,8-8s8,3.576,8,8C352,336.936,308.936,380,256,380z"/>
<path d="M168,292.008c-4.424,0-8-3.576-8-8V212c0-4.424,3.576-8,8-8s8,3.576,8,8v72.008C176,288.432,172.424,292.008,168,292.008z"
	/>
<path d="M344,292.016c-4.424,0-8-3.576-8-8V212c0-4.424,3.576-8,8-8s8,3.576,8,8v72.016C352,288.44,348.424,292.016,344,292.016z"/>
<path d="M344,220c-4.424,0-8-3.576-8-8c0-17.648-14.352-32-32-32c-4.424,0-8-3.576-8-8s3.576-8,8-8c26.472,0,48,21.528,48,48
	C352,216.424,348.424,220,344,220z"/>
<path d="M304,180c-4.424,0-8-3.576-8-8v-32c0-4.424,3.576-8,8-8s8,3.576,8,8v32C312,176.424,308.424,180,304,180z"/>
<path d="M304,148h-64c-4.424,0-8-3.576-8-8s3.576-8,8-8h64c4.424,0,8,3.576,8,8S308.424,148,304,148z"/>
<path d="M168,220c-4.424,0-8-3.576-8-8c0-44.112,35.888-79.992,80-79.992c4.424,0,8,3.576,8,8s-3.576,8-8,8
	c-35.288,0-64,28.704-64,63.992C176,216.424,172.424,220,168,220z"/>
<path d="M344,260c-2.048,0-4.096-0.784-5.656-2.344l-24-24c-3.128-3.128-3.128-8.184,0-11.312s8.184-3.128,11.312,0l24,24
	c3.128,3.128,3.128,8.184,0,11.312C348.096,259.216,346.048,260,344,260z"/>
<path d="M256,252c-35.88,0-66.504-16.264-67.792-16.952c-3.888-2.096-5.344-6.936-3.256-10.832c2.096-3.88,6.92-5.368,10.832-3.264
	C196.064,221.104,224.256,236,256,236c31.896,0,59.928-14.888,60.208-15.048c3.888-2.096,8.744-0.632,10.832,3.256
	s0.632,8.744-3.256,10.832C322.504,235.736,291.88,252,256,252z"/>
<path d="M168,260c-2.048,0-4.096-0.784-5.656-2.344c-3.128-3.128-3.128-8.184,0-11.312l24-24c3.128-3.128,8.184-3.128,11.312,0
	s3.128,8.184,0,11.312l-24,24C172.096,259.216,170.048,260,168,260z"/>
<path d="M232,412c-2.048,0-4.096-0.784-5.656-2.344l-16-15.992c-3.128-3.128-3.128-8.184,0-11.312s8.184-3.128,11.312,0l16,15.992
	c3.128,3.128,3.128,8.184,0,11.312C236.096,411.216,234.048,412,232,412z"/>
<path d="M232,412c-3.352,0-6.472-2.12-7.584-5.472c-1.4-4.192,0.864-8.728,5.056-10.12l24-8c4.216-1.408,8.728,0.864,10.12,5.056
	c1.4,4.192-0.864,8.728-5.056,10.12l-24,8C233.688,411.864,232.832,412,232,412z"/>
<path d="M280,412c-2.048,0-4.096-0.784-5.656-2.344c-3.128-3.128-3.128-8.184,0-11.312l16-15.992c3.128-3.128,8.184-3.128,11.312,0
	s3.128,8.184,0,11.312l-16,15.992C284.096,411.216,282.048,412,280,412z"/>
<path d="M280,412c-0.832,0-1.688-0.136-2.528-0.416l-24-8c-4.184-1.392-6.456-5.92-5.056-10.12c1.4-4.184,5.888-6.464,10.12-5.056
	l24,8c4.184,1.392,6.456,5.92,5.056,10.12C286.472,409.88,283.352,412,280,412z"/>
<path d="M360,508c-4.424,0-8-3.576-8-8s3.576-8,8-8c4.416,0,8-3.584,8-8c0-4.424,3.576-8,8-8s8,3.576,8,8
	C384,497.232,373.232,508,360,508z"/>
<path d="M152,508c-13.232,0-24-10.768-24-24c0-4.424,3.576-8,8-8s8,3.576,8,8c0,4.416,3.584,8,8,8c4.424,0,8,3.576,8,8
	S156.424,508,152,508z"/>
<path d="M504,348H384c-4.424,0-8-3.576-8-8V228c0-4.424,3.576-8,8-8h120c4.424,0,8,3.576,8,8v112C512,344.424,508.424,348,504,348z
	 M392,332h104v-96H392V332z"/>
<path d="M504,260H384c-4.424,0-8-3.576-8-8s3.576-8,8-8h120c4.424,0,8,3.576,8,8C512,256.424,508.424,260,504,260z"/>
<path d="M472,292h-55.336c-4.424,0-8-3.576-8-8s3.576-8,8-8H472c4.424,0,8,3.576,8,8S476.424,292,472,292z"/>
<path d="M448,316h-31.336c-4.424,0-8-3.576-8-8s3.576-8,8-8H448c4.424,0,8,3.576,8,8S452.424,316,448,316z"/>
<path d="M96,180c-44.112,0-80-35.888-80-80s35.888-80,80-80s80,35.888,80,80S140.112,180,96,180z M96,36c-35.288,0-64,28.712-64,64
	s28.712,64,64,64s64-28.712,64-64S131.288,36,96,36z"/>
<path d="M112,84c-13.232,0-24-10.768-24-24s10.768-24,24-24c4.424,0,8,3.576,8,8s-3.576,8-8,8c-4.416,0-8,3.584-8,8s3.584,8,8,8
	c4.424,0,8,3.576,8,8S116.424,84,112,84z"/>
<path d="M141.256,52H112c-4.424,0-8-3.576-8-8s3.576-8,8-8h29.256c4.424,0,8,3.576,8,8S145.68,52,141.256,52z"/>
<path d="M163.68,84H112c-4.424,0-8-3.576-8-8s3.576-8,8-8h51.68c4.424,0,8,3.576,8,8S168.104,84,163.68,84z"/>
<path d="M64,164c-4.424,0-8-3.576-8-8s3.576-8,8-8c4.416,0,8-3.584,8-8s-3.584-8-8-8c-4.424,0-8-3.576-8-8s3.576-8,8-8
	c13.232,0,24,10.768,24,24S77.232,164,64,164z"/>
<path d="M64,164H50.752c-4.424,0-8-3.576-8-8s3.576-8,8-8H64c4.424,0,8,3.576,8,8S68.424,164,64,164z"/>
<path d="M64,132H28.104c-4.424,0-8-3.576-8-8s3.576-8,8-8H64c4.424,0,8,3.576,8,8C72,128.424,68.424,132,64,132z"/>
<path d="M128,348H8c-4.424,0-8-3.576-8-8v-96c0-4.424,3.576-8,8-8h120c4.424,0,8,3.576,8,8v96C136,344.424,132.424,348,128,348z
	 M16,332h104v-80H16V332z"/>
<path d="M31.992,348c-1.672,0-3.352-0.52-4.792-1.6c-3.536-2.648-4.256-7.664-1.6-11.192l24-32c2.648-3.536,7.672-4.248,11.192-1.6
	c3.536,2.648,4.256,7.664,1.6,11.192l-24,32C36.832,346.896,34.432,348,31.992,348z"/>
<path d="M71.536,336.704c-2.44,0-4.832-1.104-6.408-3.2L49.6,312.8c-2.648-3.528-1.936-8.544,1.6-11.192
	c3.528-2.656,8.544-1.944,11.192,1.6l15.528,20.704c2.648,3.528,1.936,8.544-1.6,11.192
	C74.888,336.176,73.208,336.704,71.536,336.704z"/>
<path d="M63.992,348c-1.52,0-3.064-0.44-4.432-1.344c-3.68-2.456-4.672-7.416-2.216-11.096l32-48c2.448-3.68,7.4-4.672,11.096-2.216
	c3.68,2.456,4.672,7.416,2.216,11.096l-32,48C69.12,346.752,66.576,348,63.992,348z"/>
<path d="M128.008,348c-2.584,0-5.128-1.248-6.664-3.56l-32-48c-2.456-3.68-1.464-8.64,2.216-11.096s8.64-1.464,11.096,2.216l32,48
	c2.456,3.68,1.464,8.64-2.216,11.096C131.072,347.56,129.528,348,128.008,348z"/>
<path d="M40.24,284c-4.424,0-8.04-3.576-8.04-8s3.536-8,7.952-8h0.088c4.416,0,8,3.576,8,8S44.656,284,40.24,284z"/>
<path d="M416,100h-80c-4.424,0-8-3.576-8-8V12c0-4.424,3.576-8,8-8h80c4.424,0,8,3.576,8,8v80C424,96.424,420.424,100,416,100z
	 M344,84h64V20h-64V84z"/>
<path d="M440,172h-40c-4.424,0-8-3.576-8-8v-40c0-4.424,3.576-8,8-8h40c4.424,0,8,3.576,8,8v40C448,168.424,444.424,172,440,172z
	 M408,156h24v-24h-24V156z"/>
<path d="M296,84h-32c-4.424,0-8-3.576-8-8V44c0-4.424,3.576-8,8-8h32c4.424,0,8,3.576,8,8v32C304,80.424,300.424,84,296,84z M272,68
	h16V52h-16V68z"/>
<g>
</g>
<g>
</g>
<g>
</g>
<g>
</g>
<g>
</g>
<g>
</g>
<g>
</g>
<g>
</g>
<g>
</g>
<g>
</g>
<g>
</g>
<g>
</g>
<g>
</g>
<g>
</g>
<g>
</g>
</svg>
