<svg id="_x33_0" enable-background="new 0 0 64 64" height="512" viewBox="0 0 64 64" width="512" xmlns="http://www.w3.org/2000/svg"><g><g><path d="m11 13c-.77 0-1.46.29-1.99.77l-.01-.01s-.25-.69-.5-1.63c-.25-.93-.5-2.13-.5-3.13 0-.83.34-1.58.88-2.12s1.29-.88 2.12-.88l.78-1.04c.7-.93 1.6-1.67 2.61-2.18 1.01-.5 2.15-.78 3.31-.78.86 0 1.71.15 2.52.45l6.58 2.39c.96.35 1.76.98 2.32 1.78s.88 1.76.88 2.78c0 .4-.05.79-.15 1.18l-.85 3.19c-.53-.48-1.23-.77-2-.77h-1c-2.5 0-5.25-1-7.38-2-2.12-1-3.62-2-3.62-2-1.41.95-2.41 2.38-2.81 4z" fill="#b27946"/><path d="m19 32-5 3-1-6.6-.02-.11 2.02-.29z" fill="#e6e9ed"/><path d="m25 28.4-1 6.6-5-3 4-4 2.02.29z" fill="#e6e9ed"/><path d="m19 45 1.96-1.96c.67-.67 1.04-1.57 1.04-2.5 0-.98-.4-1.86-1.04-2.5s-1.52-1.04-2.5-1.04c-.93 0-1.83.37-2.5 1.04l-1.96 1.96zm8.88-16.3c1.39.2 2.73.71 3.91 1.49.93.62 1.73 1.39 2.37 2.27-.1.16-.16.34-.16.54v19h-4-12c-1.1 0-2 .9-2 2v1h-9.05c-1.37 0-2.6-.56-3.5-1.45-.89-.9-1.45-2.13-1.45-3.5v-11.99c0-3.16 1.58-6.11 4.21-7.87 1.18-.78 2.52-1.29 3.91-1.49l2.86-.41.02.11 1 6.6 5-3 5 3 1-6.6.02-.11z" fill="#b4dd7f"/><path d="m62 56v5c0 .55-.45 1-1 1h-58c-.55 0-1-.45-1-1v-5c0-.55.45-1 1-1h3.95 9.05v1c0 1.1.9 2 2 2h16 22c1.1 0 2-.9 2-2v-1h3c.55 0 1 .45 1 1z" fill="#d3a06c"/><path d="m34 52c-1.1 0-2 .9-2 2v2c0 1.1.9 2 2 2h-16c-1.1 0-2-.9-2-2v-1-1c0-1.1.9-2 2-2h12z" fill="#969faa"/><path d="m58 55v1c0 1.1-.9 2-2 2h-22c-1.1 0-2-.9-2-2v-2c0-1.1.9-2 2-2h4 18c1.1 0 2 .9 2 2z" fill="#aab2bd"/><path d="m38 32v20h-4v-19c0-.2.06-.38.16-.54.18-.28.49-.46.84-.46z" fill="#aab2bd"/><path d="m58 33v17c0 1.1-.9 2-2 2h-18v-20h19c.55 0 1 .45 1 1z" fill="#ccd1d9"/><path d="m48 2c7.73 0 14 6.27 14 14s-6.27 14-14 14-14-6.27-14-14 6.27-14 14-14z" fill="#e6e9ed"/><path d="m44 16v3c0 .55-.45 1-1 1h-4c-.55 0-1-.45-1-1v-3z" fill="#b27946"/><path d="m58 16v3c0 .55-.45 1-1 1h-4c-.55 0-1-.45-1-1v-3z" fill="#b27946"/><circle cx="48" cy="42" fill="#ff826e" r="2"/><g fill="#f0d0b4"><path d="m22 40.54c0 .93-.37 1.83-1.04 2.5l-1.96 1.96-5-5 1.96-1.96c.67-.67 1.57-1.04 2.5-1.04.98 0 1.86.4 2.5 1.04s1.04 1.52 1.04 2.5z"/><path d="m22.07 24.29.93 3.71-4 4-4-4 .93-3.71c.92.46 1.96.71 3.07.71s2.15-.25 3.07-.71z"/><path d="m29.12 18.12c-.54.54-1.29.88-2.12.88h-1.07-.01c.06-.33.08-.66.08-1v-5h1c.77 0 1.47.29 2 .77.62.54 1 1.34 1 2.23 0 .83-.34 1.58-.88 2.12z"/><path d="m26 13v5c0 .34-.02.67-.08 1-.32 2.34-1.81 4.3-3.85 5.29-.92.46-1.96.71-3.07.71s-2.15-.25-3.07-.71c-2.04-.99-3.53-2.95-3.85-5.29-.06-.33-.08-.66-.08-1v-3.39c0-.55.07-1.09.19-1.61.4-1.62 1.4-3.05 2.81-4 0 0 1.5 1 3.62 2 2.13 1 4.88 2 7.38 2z"/><path d="m12 18c0 .34.02.67.08 1h-.01-1.07c-.83 0-1.58-.34-2.12-.88s-.88-1.29-.88-2.12c0-.89.39-1.7 1.01-2.23.53-.48 1.22-.77 1.99-.77h1.19c-.12.52-.19 1.06-.19 1.61z"/></g></g><g><path d="m55.618 9h-6.618v-2h-2v2h-6.618l-3.382 6.764v3.236c0 1.103.897 2 2 2h4c1.103 0 2-.897 2-2v-3.236l-2.382-4.764h4.382v12h-4v2h10v-2h-4v-12h4.382l-2.382 4.764v3.236c0 1.103.897 2 2 2h4c1.103 0 2-.897 2-2v-3.236zm-14.618 3.236 1.382 2.764h-2.764zm-2 6.764v-2h4v2zm17.382-4h-2.764l1.382-2.764zm-3.382 4v-2h4v2z"/><path d="m63 16c0-8.271-6.729-15-15-15s-15 6.729-15 15 6.729 15 15 15 15-6.729 15-15zm-15 13c-7.168 0-13-5.832-13-13s5.832-13 13-13 13 5.832 13 13-5.832 13-13 13z"/><path d="m48 45c1.654 0 3-1.346 3-3s-1.346-3-3-3-3 1.346-3 3 1.346 3 3 3zm0-4c.551 0 1 .448 1 1s-.449 1-1 1-1-.448-1-1 .449-1 1-1z"/><circle cx="16" cy="16" r="1"/><circle cx="22" cy="16" r="1"/><path d="m22.789 19.658.105-.211-1.789-.895-.105.212c-.381.762-1.147 1.236-2 1.236s-1.619-.474-2-1.236l-.105-.211-1.789.895.105.211c.722 1.444 2.174 2.341 3.789 2.341s3.067-.897 3.789-2.342z"/><path d="m61 54h-2c0-.771-.301-1.468-.78-2 .48-.532.78-1.229.78-2v-17c0-1.103-.897-2-2-2h-9-13c-.226 0-.44.046-.644.116-.593-.668-1.267-1.258-2.016-1.757-1.292-.861-2.787-1.433-4.324-1.652l-4.209-.601-.581-2.325c1.715-1.073 2.991-2.773 3.511-4.78h.263c2.206 0 4-1.794 4-4 0-.947-.344-1.806-.896-2.491l.721-2.686c.116-.467.175-.944.175-1.422 0-2.454-1.549-4.666-3.855-5.505l-6.578-2.392c-.922-.335-1.887-.505-2.87-.505-2.628 0-5.139 1.255-6.715 3.357l-.508.677c-1.958.259-3.474 1.939-3.474 3.966 0 1.608.565 3.587.871 4.539-.537.681-.871 1.528-.871 2.461 0 2.206 1.794 4 4 4h.263c.52 2.007 1.796 3.708 3.511 4.78l-.581 2.325-4.209.601c-1.537.22-3.032.791-4.324 1.652-2.918 1.946-4.66 5.2-4.66 8.706v11.986c0 1.542.595 2.944 1.56 4.003-.891.201-1.56.996-1.56 1.947v5c0 1.103.897 2 2 2h58c1.103 0 2-.897 2-2v-5c0-1.103-.897-2-2-2zm-4 0v2c0 .552-.449 1-1 1h-22c-.551 0-1-.448-1-1v-2c0-.552.449-1 1-1h22c.551 0 1 .448 1 1zm-25.816-1c-.112.314-.184.648-.184 1v2c0 .352.072.686.184 1h-13.184c-.551 0-1-.448-1-1v-2c0-.552.449-1 1-1zm25.816-20v17c0 .552-.449 1-1 1h-17v-18zm-20 0v18h-2v-18zm-13.123-3.865-.642 4.24-2.622-1.574 2.741-2.741zm3.123-11.135v-4c1.103 0 2 .897 2 2s-.897 2-2 2zm-18-2c0-1.103.897-2 2-2h.037c-.015.201-.037.401-.037.605v3.395c-1.103 0-2-.897-2-2zm2.46-4h-.46c-.503 0-.979.104-1.422.273-.265-.921-.578-2.228-.578-3.273 0-1.103.897-2 2-2h.5l1.082-1.442c1.201-1.602 3.113-2.558 5.115-2.558.749 0 1.483.13 2.185.385l6.579 2.392c1.518.552 2.539 2.009 2.539 3.625 0 .314-.039.629-.111.919l-.519 1.936c-.429-.158-.887-.257-1.37-.257h-1c-4.633 0-10.388-3.794-10.446-3.832l-.554-.369-.554.369c-1.406.937-2.434 2.289-2.986 3.832zm1.54 6v-3.395c0-1.71.755-3.31 2.046-4.393 1.562.955 5.875 3.379 9.954 3.741v4.047c0 3.309-2.691 6-6 6s-6-2.691-6-6zm6 8c.828 0 1.627-.127 2.379-.361l.514 2.055-2.893 2.892-2.893-2.893.514-2.055c.752.235 1.551.362 2.379.362zm-4.354 3.06 2.741 2.741-2.622 1.574-.642-4.24zm-11.646 9.004c0-2.836 1.409-5.469 3.768-7.042 1.046-.696 2.255-1.158 3.499-1.336l1.876-.268 1.092 7.207 5.765-3.459 5.765 3.459 1.092-7.207 1.876.268c1.243.178 2.453.64 3.498 1.336.688.459 1.278 1.029 1.801 1.661-.017.104-.032.208-.032.317v18h-2v-14h-2v14h-11c-1.654 0-3 1.346-3 3h-3.586l10.258-10.258c.856-.856 1.328-1.996 1.328-3.207 0-2.501-2.035-4.535-4.536-4.535-1.212 0-2.351.472-3.207 1.328l-6.257 6.258v-6.586h-2v8.586l-2.707 2.707 1.414 1.414 8.293-8.293 3.586 3.586-7.843 7.843c-.746.746-1.738 1.157-2.793 1.157-2.178 0-3.95-1.772-3.95-3.95zm16 5.522-3.586-3.586 1.258-1.258c.478-.478 1.115-.742 1.792-.742 1.398 0 2.536 1.138 2.536 2.535 0 .677-.264 1.313-.743 1.793zm42 17.414h-58v-5h12c0 1.654 1.346 3 3 3h38c1.654 0 3-1.346 3-3h2z"/></g></g></svg>