<svg xmlns="http://www.w3.org/2000/svg" width="79" height="72" viewBox="0 0 79 72">
    <g fill="none" fill-rule="evenodd">
        <path fill="#000DF1" fill-rule="nonzero" d="M10.032 50.484l4.527-2.264C19.298 59.235 30.249 66.947 43 66.947c17.092 0 30.947-13.855 30.947-30.947S60.092 5.053 43 5.053c-13.07 0-24.246 8.1-28.783 19.555l-4.535-2.267C15.062 9.232 27.952 0 43 0c19.882 0 36 16.118 36 36S62.882 72 43 72c-14.73 0-27.393-8.846-32.968-21.516z"/>
        <path fill="#000DF1" d="M35.497 45.624l3.66 3.605 13.88-13.23L39.158 23l-3.66 3.605 7.63 6.846H0v5.098h43.128z"/>
    </g>
</svg>
