<svg id="Layer_1" enable-background="new 0 0 496 496" height="512" viewBox="0 0 496 496" width="512" xmlns="http://www.w3.org/2000/svg"><g><path d="m448 0h-400c-26.51 0-48 21.49-48 48v400c0 26.51 21.49 48 48 48h400c26.51 0 48-21.49 48-48v-400c0-26.51-21.49-48-48-48z" fill="#595965"/><path d="m448 0h-32c26.51 0 48 21.49 48 48v400c0 26.51-21.49 48-48 48h32c26.51 0 48-21.49 48-48v-400c0-26.51-21.49-48-48-48z" fill="#44454e"/><path d="m464 48v400c0 8.84-7.16 16-16 16h-400c-8.84 0-16-7.16-16-16v-400c0-8.84 7.16-16 16-16h400c8.84 0 16 7.16 16 16z" fill="#edebfd"/><path d="m448 32h-32c8.836 0 16 7.164 16 16v400c0 8.836-7.164 16-16 16h32c8.836 0 16-7.164 16-16v-400c0-8.836-7.164-16-16-16z" fill="#d2d2fc"/><path d="m464 261.09v186.91c0 8.84-7.16 16-16 16h-376c-5.05 0-9.55-2.34-12.48-5.99l122.25-208.12c13.25-23.151 46.354-23.943 60.72-1.58l32.66 50.81 73.8-114.05c14.552-22.471 47.225-22.673 62.19-.87z" fill="#d2d2fc"/><path d="m464 296v152c0 8.84-7.16 16-16 16h-400c-5.05 0-9.55-2.34-12.48-5.99l122.25-208.12c13.25-23.151 46.354-23.943 60.72-1.58l32.66 50.81 73.8-114.05c14.552-22.471 47.225-22.673 62.19-.87z" fill="#79cb9c"/><path d="m387.14 184.2c-10.414-15.172-30.282-20.426-46.813-12.59 6.17 2.923 11.167 7.277 14.813 12.59l74.045 107.705c1.834 2.667 2.815 5.828 2.815 9.064v147.031c0 8.84-7.16 16-16 16h32c8.837 0 16-7.163 16-16v-152z" fill="#63ac7d"/><circle cx="144" cy="120" fill="#d2d2fc" r="40"/><circle cx="120" cy="120" fill="#f1cc76" r="40"/><path d="m108 81.834c16.228 5.097 28 20.256 28 38.166s-11.772 33.069-28 38.166c25.722 8.079 52-11.145 52-38.166 0-27.074-26.324-46.231-52-38.166z" fill="#ebb15d"/></g></svg>