<svg width="92" height="92" viewBox="0 0 92 92" fill="none" xmlns="http://www.w3.org/2000/svg">
<path d="M88.2079 48.0254C88.2079 70.2175 70.2153 88.2079 48.0233 88.2079C42.5794 88.2079 37.3895 87.1256 32.6566 85.1631C19.7184 79.804 10.1887 67.8815 8.21844 53.548C7.96857 51.7434 7.84082 49.8988 7.84082 48.0254C7.84082 25.8313 25.8313 7.84082 48.0233 7.84082C70.2153 7.84082 88.2079 25.8313 88.2079 48.0254Z" fill="#00DCD4" stroke="#24282C" stroke-width="2"/>
<path d="M71.5245 17.1613C69.2414 12.3518 66.0151 8.01185 62.0647 4.43806C61.5127 3.93889 61.4701 3.08645 61.9693 2.53446C62.4686 1.98246 63.3211 1.93969 63.8731 2.43922C68.0829 6.24733 71.5234 10.8735 73.9596 16.0052C74.2787 16.6776 73.9925 17.4817 73.3201 17.8008C72.6506 18.1189 71.8452 17.8369 71.5245 17.1613Z" fill="#3CC431"/>
<path d="M71.5245 17.1613C69.2414 12.3518 66.0151 8.01185 62.0647 4.43806C61.5127 3.93889 61.4701 3.08645 61.9693 2.53446C62.4686 1.98246 63.3211 1.93969 63.8731 2.43922C68.0829 6.24733 71.5234 10.8735 73.9596 16.0052C74.2787 16.6776 73.9925 17.4817 73.3201 17.8008C72.6506 18.1189 71.8452 17.8369 71.5245 17.1613Z" fill="white" fill-opacity="0.88"/>
<path d="M63.9693 19.269C62.3778 16.2413 60.3158 13.4671 57.8711 11.0674C57.34 10.5459 57.3321 9.69258 57.8535 9.16142C58.375 8.63009 59.2283 8.62254 59.7594 9.14363C62.3994 11.7353 64.6313 14.7349 66.3552 18.0148C66.7015 18.6735 66.4481 19.4886 65.7894 19.8348C65.1288 20.182 64.3149 19.9266 63.9693 19.269Z" fill="#3CC431"/>
<path d="M63.9693 19.269C62.3778 16.2413 60.3158 13.4671 57.8711 11.0674C57.34 10.5459 57.3321 9.69258 57.8535 9.16142C58.375 8.63009 59.2283 8.62254 59.7594 9.14363C62.3994 11.7353 64.6313 14.7349 66.3552 18.0148C66.7015 18.6735 66.4481 19.4886 65.7894 19.8348C65.1288 20.182 64.3149 19.9266 63.9693 19.269Z" fill="white" fill-opacity="0.88"/>
<path d="M12.9439 61.3718C8.73351 57.5628 5.29395 52.9382 2.85739 47.806C2.53809 47.1336 2.82451 46.3295 3.49672 46.0104C4.16911 45.6913 4.97303 45.9775 5.29233 46.6499C7.57597 51.4599 10.8012 55.7986 14.7523 59.373C15.3043 59.8721 15.3469 60.7246 14.8475 61.2766C14.3498 61.8268 13.4974 61.8728 12.9439 61.3718Z" fill="#3CC431"/>
<path d="M12.9439 61.3718C8.73351 57.5628 5.29395 52.9382 2.85739 47.806C2.53809 47.1336 2.82451 46.3295 3.49672 46.0104C4.16911 45.6913 4.97303 45.9775 5.29233 46.6499C7.57597 51.4599 10.8012 55.7986 14.7523 59.373C15.3043 59.8721 15.3469 60.7246 14.8475 61.2766C14.3498 61.8268 13.4974 61.8728 12.9439 61.3718Z" fill="white" fill-opacity="0.88"/>
<path d="M17.0579 54.6676C14.4169 52.0751 12.1863 49.0758 10.4622 45.7965C10.1159 45.1376 10.3691 44.3227 11.028 43.9763C11.6869 43.6302 12.5018 43.8832 12.848 44.5419C14.4402 47.5709 16.5016 50.3443 18.9461 52.7439C19.4772 53.2652 19.4851 54.1187 18.9639 54.6498C18.4431 55.1804 17.5896 55.1898 17.0579 54.6676Z" fill="#3CC431"/>
<path d="M17.0579 54.6676C14.4169 52.0751 12.1863 49.0758 10.4622 45.7965C10.1159 45.1376 10.3691 44.3227 11.028 43.9763C11.6869 43.6302 12.5018 43.8832 12.848 44.5419C14.4402 47.5709 16.5016 50.3443 18.9461 52.7439C19.4772 53.2652 19.4851 54.1187 18.9639 54.6498C18.4431 55.1804 17.5896 55.1898 17.0579 54.6676Z" fill="white" fill-opacity="0.88"/>
<path d="M70.8506 17.1612C71.1722 17.8381 71.9785 18.1179 72.6462 17.8007C73.3186 17.4816 73.6048 16.6775 73.2857 16.0051C70.8513 10.8774 67.4123 6.25008 63.199 2.43893C62.6472 1.93994 61.7949 1.98234 61.2952 2.53434C60.796 3.08634 60.8386 3.93859 61.3906 4.43812C65.3394 8.01012 68.5655 12.3485 70.8506 17.1612Z" fill="#24282C"/>
<path d="M57.1793 9.16127C56.658 9.69242 56.6659 10.5458 57.1971 11.0672C59.6394 13.4644 61.7013 16.237 63.2953 19.269C63.5364 19.7278 64.0047 19.9899 64.4897 19.9899C65.4894 19.9899 66.1572 18.9192 65.6815 18.0146C63.96 14.7398 61.7299 11.7391 59.0858 9.14366C58.5542 8.62256 57.7011 8.63011 57.1793 9.16127Z" fill="#24282C"/>
<path d="M4.61857 46.649C4.29944 45.9768 3.49553 45.6902 2.82296 46.0095C2.15075 46.3286 1.86433 47.1327 2.18345 47.8051C4.61785 52.9328 8.05669 57.5595 12.27 61.3709C12.528 61.6043 12.8511 61.7191 13.1736 61.7191C14.3966 61.7191 14.9962 60.2022 14.078 59.3719C12.1119 57.5931 10.3101 55.609 8.72333 53.4749C7.13616 51.34 5.75527 49.0433 4.61857 46.649Z" fill="#24282C"/>
<path d="M12.1738 44.5419C11.8277 43.8833 11.0132 43.6301 10.3536 43.9762C9.69486 44.3227 9.4415 45.1375 9.78793 45.7964C11.4466 48.9516 13.6456 51.98 16.3837 54.6676C16.9145 55.1885 17.7678 55.1815 18.2896 54.6498C18.8109 54.1186 18.803 53.2653 18.2718 52.7438C15.8294 50.3459 13.7678 47.5739 12.1738 44.5419Z" fill="#24282C"/>
<path d="M87.6183 66.0379L84.8168 62.2701C84.8432 62.0212 87.7076 54.3588 84.373 47.7065C83.8418 46.6469 83.4251 45.5307 83.2248 44.3625C81.8351 36.2482 85.9465 25.2665 86.0252 25.018C87.4584 20.4881 88.0275 18.6802 84.5645 17.0145C80.7956 15.2015 77.447 17.2957 75.4916 20.8491C75.226 21.3313 71.2914 28.6311 70.3896 38.1171C64.5629 30.2803 50.7063 11.6439 46.1008 5.44935C44.3812 3.13643 41.1648 2.42379 38.7065 3.92867C35.8872 5.65456 35.2109 9.37839 37.1384 11.9709C37.1243 11.952 34.2229 8.0496 34.306 8.16137C32.5012 5.73398 29.0695 5.09304 26.5963 6.83474C24.0385 8.6361 23.4818 12.1792 25.3369 14.6743C28.6438 19.1217 27.8834 18.0995 28.2437 18.5839C26.3367 16.0191 22.6351 15.5758 20.1698 17.7C17.9561 19.6074 17.674 22.9435 19.4175 25.2886L24.787 32.5105C22.8595 29.9182 19.0989 29.4931 16.6341 31.696C14.4852 33.6167 14.2412 36.9021 15.9608 39.215C16.844 40.4029 41.0302 72.9325 42.3743 74.7402C45.1403 78.4606 48.9199 80.9827 53.0466 82.2087C56.9294 83.3623 58.5137 86.4268 58.9673 86.9066L59.1539 87.1576C60.7077 89.2472 63.6608 89.6815 65.7504 88.1279L86.6543 72.5856C88.7291 71.0431 89.1602 68.1119 87.6183 66.0379Z" fill="#FDD7BD"/>
<path d="M25.3973 15.1757C27.438 17.9202 43.6057 39.6652 43.0589 38.9299C43.9499 40.1284 45.6704 40.3198 46.8032 39.3462C47.8331 38.4613 48.0033 36.9305 47.1929 35.8407L32.7901 16.4699C32.784 16.4617 32.7783 16.454 32.773 16.4469L32.7533 16.4204C32.7456 16.4099 32.7385 16.4006 32.7326 16.3923L32.7177 16.3724C32.7177 16.3724 32.7175 16.372 32.7173 16.372L29.9293 12.6223C28.4426 10.6228 28.5062 7.95099 29.906 6.0411C25.4869 5.75396 22.1142 10.7586 25.3973 15.1757Z" fill="#FAC5AA"/>
<path d="M35.0757 46.7683C36.0317 48.0542 37.897 48.2145 39.0585 47.1105C39.9621 46.2516 40.0823 44.8532 39.3384 43.8526C37.4535 41.3175 25.4467 25.1687 24.0099 23.2362C22.5131 21.2232 22.5106 18.4808 23.9398 16.5376C19.2293 16.2607 16.3847 21.6294 19.2383 25.4674C26.3988 35.0984 27.6239 36.7463 35.0757 46.7683Z" fill="#FAC5AA"/>
<path d="M63.7464 85.105L63.5598 84.854C63.1062 84.3742 61.5219 81.3095 57.6391 80.1561C53.5126 78.9301 49.7329 76.408 46.9668 72.6876C45.6227 70.8797 21.4365 38.3503 20.5533 37.1624C19.0591 35.1526 19.0483 32.4092 20.4809 30.4642C15.7845 30.1902 12.9141 35.5368 15.7819 39.3938C16.6651 40.5817 40.8513 73.1113 42.1954 74.9189C44.9616 78.6393 48.741 81.1614 52.8677 82.3874C56.7505 83.541 58.3348 86.6056 58.7884 87.0853L58.9751 87.3364C60.5288 89.4259 63.482 89.8602 65.5715 88.3067L67.3269 87.0016C65.9584 86.9418 64.6275 86.2899 63.7464 85.105Z" fill="#FAC5AA"/>
<path d="M41.7305 9.91927C41.7305 9.91927 41.7278 9.91568 41.7305 9.91927C40.2414 7.91666 40.3075 5.23969 41.7136 3.32944C40.7415 3.26511 39.7505 3.45719 38.8449 3.93085L38.8445 3.93013C38.3745 4.17594 37.9488 4.48464 37.5842 4.83108C37.5837 4.83162 37.5829 4.83216 37.5822 4.83288C35.6535 6.66694 35.2943 9.65064 36.7823 11.8989L36.9587 12.1506L52.9091 33.6036C53.8406 34.8564 55.6585 35.0107 56.7879 33.933C57.8299 32.9386 57.9596 31.3205 57.0892 30.1728L41.7305 9.91927ZM40.2004 7.86168L40.1163 7.74865C40.1444 7.78621 40.1724 7.82376 40.2004 7.86168Z" fill="#FAC5AA"/>
<path d="M75.3117 21.0278C75.1461 21.3288 73.5521 24.2881 72.1573 28.7745L72.1559 28.7732C71.316 31.4748 70.5486 34.7307 70.2097 38.2959C71.6882 40.2608 74.814 39.305 74.9407 36.8492L74.9811 36.0646C75.8828 26.5785 79.8174 19.2789 80.0832 18.7965C80.5512 17.9457 81.1002 17.1798 81.7149 16.5299C79.0647 16.4909 76.79 18.3417 75.3117 21.0278Z" fill="#FAC5AA"/>
<path d="M51.0862 12.287C50.4889 12.7312 50.3646 13.5755 50.8088 14.1726L69.4204 39.2046C70.1555 40.1932 71.7272 39.7536 71.8436 38.5281C72.7262 29.2413 76.619 22.0828 76.7845 21.7824C77.4768 20.5235 80.0512 16.5682 84.092 18.5124C86.6442 19.7404 86.1783 20.4536 84.8326 24.9481C83.8449 27.7235 80.7217 37.3632 82.0079 44.8732C82.6252 48.4761 84.0639 48.6867 84.6256 53.3823C84.8506 55.2618 84.7818 57.1781 84.4231 59.1019C84.3365 59.5265 83.8461 61.5372 81.9823 63.7764C81.5063 64.3485 81.5839 65.1983 82.156 65.6746C82.729 66.1517 83.5789 66.0717 84.0542 65.5009C84.3106 65.1929 84.5453 64.8878 84.7613 64.5874L86.6485 67.1256C87.7448 68.5999 87.437 70.6911 85.963 71.787L83.1276 73.8953C82.0863 74.6694 82.6399 76.3247 83.9326 76.3247C84.6937 76.3247 84.8179 75.8965 87.5714 73.9501C90.2381 71.9671 90.7948 68.184 88.8118 65.5172L86.4099 62.2865C86.752 60.9722 87.8524 57.6588 87.3026 53.0615C86.7053 48.072 85.1571 47.2911 84.6652 44.418C83.4589 37.3758 86.7087 27.7167 87.3723 25.8519C87.4002 25.7734 87.4167 25.7249 87.4221 25.7076C88.8414 21.221 89.779 18.2567 85.2606 16.0829C81.2182 14.1383 76.964 15.8649 74.423 20.482C74.2674 20.7648 71.0075 26.759 69.6058 34.9362L52.9718 12.5644C52.5276 11.967 51.6833 11.8424 51.0862 12.287Z" fill="#24282C"/>
<path d="M79.9575 77.9318C79.5133 77.3341 78.6688 77.2098 78.0719 77.6543L65.0593 87.3294C63.5692 88.4372 61.4561 88.1259 60.3485 86.6367C59.8103 86.07 58.0014 82.5238 53.5434 81.1995C45.531 78.8194 42.8312 72.815 41.3112 71.1823C40.8672 70.5851 40.0227 70.4607 39.4254 70.9051C38.8283 71.3493 38.7039 72.1936 39.1481 72.7909C40.5705 74.3051 43.7752 81.1099 52.7759 83.7834C56.2358 84.8113 57.6057 87.6226 58.1858 88.2449C60.1767 90.9224 63.981 91.4902 66.6679 89.4925L79.6804 79.8174C80.2774 79.373 80.4015 78.5289 79.9575 77.9318Z" fill="#24282C"/>
<path d="M35.0596 7.10556C31.1579 2.81284 24.0155 4.80808 23.0941 10.5608C22.8283 12.2198 23.1645 13.8765 24.0425 15.2849C18.3338 15.1618 14.981 21.7132 18.4485 26.3762L20.5569 29.2121C14.7431 29.1499 11.5912 35.7288 14.9916 40.3023C22.72 50.6967 7.47821 30.1971 35.3883 67.7353C35.6528 68.0911 36.059 68.279 36.4709 68.2788C37.5621 68.2788 38.218 67.0234 37.5515 66.1269C13.0203 33.1325 19.7499 42.1842 17.1549 38.694C14.9316 35.7034 17.2246 31.5573 20.874 31.928C22.8723 32.1307 23.7985 33.582 23.8197 33.6005L36.0838 50.0954C36.3483 50.4512 36.7546 50.639 37.1664 50.639C38.2605 50.639 38.9121 49.3815 38.2471 48.4871C36.5868 46.2539 22.27 26.9985 20.6113 24.7677C19.2673 22.96 19.509 20.4286 21.1617 19.0046C23.0236 17.4005 25.8224 17.7191 27.2743 19.6716L43.9171 42.0557C44.1816 42.4115 44.5879 42.5993 44.9997 42.5993C45.2793 42.5993 45.5612 42.5128 45.8027 42.3331C46.4 41.889 46.5243 41.0446 46.0802 40.4475C44.6116 38.4724 27.5065 15.4662 26.5304 14.1536C25.1244 12.2627 25.5463 9.58524 27.484 8.22015C29.3253 6.92389 31.9503 7.38551 33.3361 9.24922C33.6997 9.73833 53.6761 36.606 53.8719 36.8694C54.3165 37.4678 55.1619 37.5901 55.7576 37.1468C56.3548 36.7027 56.4792 35.8583 56.035 35.2612L38.3324 11.4502V11.45C36.8976 9.52073 37.3499 6.69156 39.5227 5.3617C41.3474 4.24459 43.8111 4.76101 45.1318 6.53703L47.0499 9.11697C47.4939 9.71443 48.3385 9.83859 48.9356 9.39441C49.5328 8.9504 49.6572 8.10605 49.213 7.50878L47.2948 4.92883C43.8659 0.316992 36.6121 1.52611 35.0596 7.10556Z" fill="#24282C"/>
</svg>
