<svg id="Layer_1" height="512" viewBox="0 0 150 150" width="512" xmlns="http://www.w3.org/2000/svg" data-name="Layer 1"><circle cx="75" cy="75" fill="#ea8953" r="64"/><path d="m94.236 77.4h-38.472v-24.21a19.236 19.236 0 0 1 38.472 0zm-32.273-6.2h26.074v-18.01a13.037 13.037 0 0 0 -26.074 0z" fill="#3a556a"/><path d="m100.006 73.359v31.081a7.6 7.6 0 0 1 -7.6 7.612h-34.8a7.613 7.613 0 0 1 -7.612-7.612v-31.081a7.624 7.624 0 0 1 7.612-7.612h34.8a7.423 7.423 0 0 1 2.839.558 7.592 7.592 0 0 1 4.761 7.054z" fill="#ebf0f3"/><path d="m95.245 66.305c-1.314 3.979-9.881 7.042-20.245 7.042s-18.931-3.063-20.245-7.042a7.529 7.529 0 0 1 2.851-.558h34.8a7.423 7.423 0 0 1 2.839.558z" fill="#d5d6db"/><path d="m54.755 111.494c1.314-3.98 9.881-7.042 20.245-7.042s18.931 3.062 20.245 7.042a7.548 7.548 0 0 1 -2.851.558h-34.8a7.442 7.442 0 0 1 -2.839-.558z" fill="#d5d6db"/><path d="m78.886 87.37a3.886 3.886 0 1 0 -5.262 3.624v6.191h2.752v-6.191a3.88 3.88 0 0 0 2.51-3.624z" fill="#3a556a"/></svg>